<?xml version="1.0" encoding="UTF-8" standalone="no"?>
<!DOCTYPE svg PUBLIC "-//W3C//DTD SVG 1.1//EN"
 "http://www.w3.org/Graphics/SVG/1.1/DTD/svg11.dtd">
<!-- Generated by graphviz version 2.40.1 (20161225.0304)
 -->
<!-- Title: %3 Pages: 1 -->
<svg width="534pt" height="355pt"
 viewBox="0.00 0.00 534.13 355.00" xmlns="http://www.w3.org/2000/svg" xmlns:xlink="http://www.w3.org/1999/xlink">
<g id="graph0" class="graph" transform="scale(1 1) rotate(0) translate(4 351)">
<title>%3</title>
<polygon fill="#3f3f3f" stroke="transparent" points="-4,4 -4,-351 530.1279,-351 530.1279,4 -4,4"/>
<text text-anchor="middle" x="263.064" y="-9.2" font-family="Times,serif" font-size="16.00" fill="#ffffff">Network Map</text>
<!-- R3 -->
<g id="node1" class="node">
<title>R3</title>
<polygon fill="#006699" stroke="#006699" points="95.1279,-223 19.1279,-223 19.1279,-150 95.1279,-150 95.1279,-223"/>
<text text-anchor="middle" x="57.1279" y="-182.8" font-family="Helvetica,sans-Serif" font-size="14.00" fill="#ffffff">R3</text>
</g>
<!-- SW1 -->
<g id="node2" class="node">
<title>SW1</title>
<polygon fill="#006699" stroke="#006699" points="285.6279,-99 196.6279,-99 196.6279,-26 285.6279,-26 285.6279,-99"/>
<text text-anchor="middle" x="241.1279" y="-58.8" font-family="Helvetica,sans-Serif" font-size="14.00" fill="#ffffff">SW1</text>
</g>
<!-- SW1&#45;&#45;R3 -->
<g id="edge3" class="edge">
<title>SW1&#45;&#45;R3</title>
<path fill="none" stroke="#00ff00" stroke-dasharray="5,2" d="M196.2824,-71.6601C152.111,-81.5804 88.8861,-98.4877 72.1279,-117 64.0924,-125.8766 59.9928,-138.0046 58,-149.6455"/>
<text text-anchor="middle" x="122.1279" y="-120.8" font-family="Courier,monospace" font-size="14.00" fill="#ffffff"> &#160;&#160;&#160;&#160;&#160;&#160;&#160;&#160;&#160;&#160;&#160;</text>
<text text-anchor="middle" x="29" y="-138.4455" font-family="Courier,monospace" font-size="14.00" fill="#ffffff">Eth 0/0</text>
<text text-anchor="middle" x="167.2824" y="-60.4601" font-family="Courier,monospace" font-size="14.00" fill="#ffffff">Eth 0/3</text>
</g>
<!-- R4 -->
<g id="node3" class="node">
<title>R4</title>
<polygon fill="#006699" stroke="#006699" points="218.1279,-223 142.1279,-223 142.1279,-150 218.1279,-150 218.1279,-223"/>
<text text-anchor="middle" x="180.1279" y="-182.8" font-family="Helvetica,sans-Serif" font-size="14.00" fill="#ffffff">R4</text>
</g>
<!-- SW1&#45;&#45;R4 -->
<g id="edge4" class="edge">
<title>SW1&#45;&#45;R4</title>
<path fill="none" stroke="#00ff00" stroke-dasharray="5,2" d="M196.4584,-94.9436C190.2599,-101.5148 184.7745,-108.919 181.1279,-117 176.5616,-127.1193 175.1482,-138.9413 175.2113,-149.9353"/>
<text text-anchor="middle" x="231.1279" y="-120.8" font-family="Courier,monospace" font-size="14.00" fill="#ffffff"> &#160;&#160;&#160;&#160;&#160;&#160;&#160;&#160;&#160;&#160;&#160;</text>
<text text-anchor="middle" x="146.2113" y="-138.7353" font-family="Courier,monospace" font-size="14.00" fill="#ffffff">Eth 0/0</text>
<text text-anchor="middle" x="167.4584" y="-83.7436" font-family="Courier,monospace" font-size="14.00" fill="#ffffff">Eth 0/4</text>
</g>
<!-- R1 -->
<g id="node6" class="node">
<title>R1</title>
<polygon fill="#006699" stroke="#006699" points="341.1279,-223 265.1279,-223 265.1279,-150 341.1279,-150 341.1279,-223"/>
<text text-anchor="middle" x="303.1279" y="-182.8" font-family="Helvetica,sans-Serif" font-size="14.00" fill="#ffffff">R1</text>
</g>
<!-- SW1&#45;&#45;R1 -->
<g id="edge1" class="edge">
<title>SW1&#45;&#45;R1</title>
<path fill="none" stroke="#00ff00" stroke-dasharray="5,2" d="M270.5711,-99.2843C274.4359,-105.0244 278.099,-111.035 281.1279,-117 286.3424,-127.269 290.6295,-139.0192 293.9898,-149.9001"/>
<text text-anchor="middle" x="337.1279" y="-120.8" font-family="Courier,monospace" font-size="14.00" fill="#ffffff"> &#160;&#160;&#160;&#160;&#160;&#160;&#160;&#160;&#160;&#160;&#160;</text>
<text text-anchor="middle" x="264.9898" y="-138.7001" font-family="Courier,monospace" font-size="14.00" fill="#ffffff">Eth 0/0</text>
<text text-anchor="middle" x="241.5711" y="-103.0843" font-family="Courier,monospace" font-size="14.00" fill="#ffffff">Eth 0/1</text>
</g>
<!-- R2 -->
<g id="node7" class="node">
<title>R2</title>
<polygon fill="#006699" stroke="#006699" points="464.1279,-223 388.1279,-223 388.1279,-150 464.1279,-150 464.1279,-223"/>
<text text-anchor="middle" x="426.1279" y="-182.8" font-family="Helvetica,sans-Serif" font-size="14.00" fill="#ffffff">R2</text>
</g>
<!-- SW1&#45;&#45;R2 -->
<g id="edge2" class="edge">
<title>SW1&#45;&#45;R2</title>
<path fill="none" stroke="#00ff00" stroke-dasharray="5,2" d="M285.6912,-69.6C318.1749,-76.7628 361.5079,-90.6844 391.1279,-117 401.0254,-125.7933 408.4743,-138.0391 413.8987,-149.8055"/>
<text text-anchor="middle" x="453.1279" y="-120.8" font-family="Courier,monospace" font-size="14.00" fill="#ffffff"> &#160;&#160;&#160;&#160;&#160;&#160;&#160;&#160;&#160;&#160;&#160;</text>
<text text-anchor="middle" x="384.8987" y="-138.6055" font-family="Courier,monospace" font-size="14.00" fill="#ffffff">Eth 0/0</text>
<text text-anchor="middle" x="314.6912" y="-58.4" font-family="Courier,monospace" font-size="14.00" fill="#ffffff">Eth 0/2</text>
</g>
<!-- R5 -->
<g id="node4" class="node">
<title>R5</title>
<polygon fill="#006699" stroke="#006699" points="279.1279,-347 203.1279,-347 203.1279,-274 279.1279,-274 279.1279,-347"/>
<text text-anchor="middle" x="241.1279" y="-306.8" font-family="Helvetica,sans-Serif" font-size="14.00" fill="#ffffff">R5</text>
</g>
<!-- R4&#45;&#45;R5 -->
<g id="edge7" class="edge">
<title>R4&#45;&#45;R5</title>
<path fill="none" stroke="#00ff00" stroke-dasharray="5,2" d="M175.2113,-223.0647C175.1482,-234.0587 176.5616,-245.8807 181.1279,-256 185.99,-266.7746 194.1213,-276.3462 202.8529,-284.3442"/>
<text text-anchor="middle" x="231.1279" y="-244.8" font-family="Courier,monospace" font-size="14.00" fill="#ffffff"> &#160;&#160;&#160;&#160;&#160;&#160;&#160;&#160;&#160;&#160;&#160;</text>
<text text-anchor="middle" x="173.8529" y="-273.1442" font-family="Courier,monospace" font-size="14.00" fill="#ffffff">Eth 0/1</text>
<text text-anchor="middle" x="146.2113" y="-226.8647" font-family="Courier,monospace" font-size="14.00" fill="#ffffff">Eth 0/1</text>
</g>
<!-- R6 -->
<g id="node5" class="node">
<title>R6</title>
<polygon fill="#006699" stroke="#006699" points="464.1279,-347 388.1279,-347 388.1279,-274 464.1279,-274 464.1279,-347"/>
<text text-anchor="middle" x="426.1279" y="-306.8" font-family="Helvetica,sans-Serif" font-size="14.00" fill="#ffffff">R6</text>
</g>
<!-- R2&#45;&#45;R5 -->
<g id="edge5" class="edge">
<title>R2&#45;&#45;R5</title>
<path fill="none" stroke="#00ff00" stroke-dasharray="5,2" d="M387.8857,-203.9508C367.6982,-213.7964 342.8792,-226.9274 322.1279,-241 307.4057,-250.984 292.3345,-263.2534 279.2464,-274.6902"/>
<text text-anchor="middle" x="372.1279" y="-244.8" font-family="Courier,monospace" font-size="14.00" fill="#ffffff"> &#160;&#160;&#160;&#160;&#160;&#160;&#160;&#160;&#160;&#160;&#160;</text>
<text text-anchor="middle" x="308.2464" y="-263.4902" font-family="Courier,monospace" font-size="14.00" fill="#ffffff">Eth 0/0</text>
<text text-anchor="middle" x="358.8857" y="-192.7508" font-family="Courier,monospace" font-size="14.00" fill="#ffffff">Eth 0/1</text>
</g>
<!-- R2&#45;&#45;R6 -->
<g id="edge6" class="edge">
<title>R2&#45;&#45;R6</title>
<path fill="none" stroke="#00ff00" stroke-dasharray="5,2" d="M426.1279,-223.0334C426.1279,-239.0358 426.1279,-257.7778 426.1279,-273.7992"/>
<text text-anchor="middle" x="476.1279" y="-244.8" font-family="Courier,monospace" font-size="14.00" fill="#ffffff"> &#160;&#160;&#160;&#160;&#160;&#160;&#160;&#160;&#160;&#160;&#160;</text>
<text text-anchor="middle" x="397.1279" y="-262.5992" font-family="Courier,monospace" font-size="14.00" fill="#ffffff">Eth 0/1</text>
<text text-anchor="middle" x="397.1279" y="-226.8334" font-family="Courier,monospace" font-size="14.00" fill="#ffffff">Eth 0/2</text>
</g>
</g>
</svg>
